<svg class="svg-icon" style="width: 1.25em; height: 1em;vertical-align: middle;fill: #FFF;overflow: hidden;" viewBox="0 0 1280 1024" version="1.1" xmlns="http://www.w3.org/2000/svg"><path d="M957 660v60.5c0 37.6-30.4 68-68 68H478c-37.6 0-68-30.4-68-68V660c0-18.8-15.2-34-34-34s-34 15.2-34 34v59.5c0 75.4 61.1 136.5 136.5 136.5h410c75.4 0 136.5-61.1 136.5-136.5V660c0-18.8-15.2-34-34-34s-34 15.2-34 34z"  /><path d="M535 436.5c13.5 13.5 35.5 13.5 49 0l65-65V623c0 18.8 15.2 34 34 34s34-15.2 34-34V371.5l65 65c13.5 13.5 35.5 13.5 49 0s13.5-35.5 0-49L709.5 266c-14.6-14.6-38.3-14.6-52.9 0L535 387.5c-13.6 13.6-13.6 35.5 0 49z" fill="#00F1A3" /></svg>